<?xml version="1.0" encoding="utf-8"?>
<!-- Generator: Adobe Illustrator 21.1.0, SVG Export Plug-In . SVG Version: 6.00 Build 0)  -->
<svg version="1.2" baseProfile="tiny" id="Capa_1" xmlns="http://www.w3.org/2000/svg" xmlns:xlink="http://www.w3.org/1999/xlink"
	 x="0px" y="0px" viewBox="0 0 512 512" xml:space="preserve">
<path fill="#00A0FF" d="M275.2,499.5c39.7-3.9,86.1-32.8,108-67.1c15.7-24.8,31.1-66.2,14.8-122.8c-15.5-53.8-50.5-85.4-113.4-102.4
	c-50.5-13.7-97.7-12.1-98.2-12.1c-5.5,0.2-10-4-10.4-9.6c-0.4-5.6,3.6-10.4,9-11c2.1-0.2,53-5.4,98.3,9.6
	c17.5,5.8,36.5,3.1,50.7-7.2c10.4-7.6,16.4-18,16.9-29.3c0.9-17.6-4-32-14.5-42.8C305.5,73,236.4,77.9,235.7,77.9
	c-5.5,0.4-10.2-3.6-10.8-9.2c-0.6-5.6,3.2-10.5,8.6-11.3c0.5-0.1,12.8-1.8,25.5-0.8c4.1,0.3,9.3-7.6,10.4-19.4
	c1.2-12.6-15.5-21-25.8-24.9c-4.9,21.8-21.1,26.8-33.2,30.6c-13.7,4.3-24.4,7.6-27.6,31.2c-1.5,10.9,1,22.1,6.2,28
	c2.5,2.8,5.2,4.1,8.5,3.8c34.3-2.4,83.3,10.5,85.3,11c5.3,1.4,8.5,7,7.3,12.4c-0.6,2.7-2.3,5-4.6,6.5c-2.3,1.4-4.9,1.8-7.5,1.2
	c-1-0.2-99.5-24.3-146.1,13.3c-15.2,12.2-23.3,30.3-24,53.7c-0.7,22.8,4.9,45.7,11.3,59.1c2.7-1.7,5.4-3.4,8.3-5
	c7.5-5.2,15.9-9.6,24.8-13.1c12.8-5,26.7-8.1,41.3-9.2c16.4-1.8,32.8-0.6,48.8,3.8c43.5,11.9,68.2,45.2,74.1,57
	c10.6,21.4,12.1,45.1,4.3,68.5c-8.6,25.7-25.9,42.6-48.9,47.6c-5.1,1.1-10.3,1.6-15.6,1.5c-22.3-0.5-44.7-11.6-61.4-30.5
	c-5.4-6.2-6.5-11.6-3-16.3c2.1-2.8,4.5-3.6,6.2-3.8c4-0.4,7,2.2,8.8,3.7c0.3,0.3,0.7,0.6,0.9,0.7c19.7,13,38,18.2,52.9,15.1
	c10.8-2.3,19.7-8.7,26.4-19c12.1-18.6,14.4-37.3,7.1-55.7c-10.7-26.6-38.7-44.4-54.3-48.1c-11-2.6-28.1-5.1-43.1-4.1
	c-24.5,2.5-45.2,11.9-58.4,19.3c-27.3,19.1-41.6,53.5-42.3,102c-0.5,31.1,9.8,57.1,30.6,77.4C164.3,491.6,211.5,505.8,275.2,499.5z"
	/>
</svg>
